<?xml version="1.0" encoding="utf-8"?>
<!-- Generator: Adobe Illustrator 17.0.0, SVG Export Plug-In . SVG Version: 6.00 Build 0)  -->
<!DOCTYPE svg PUBLIC "-//W3C//DTD SVG 1.1//EN" "http://www.w3.org/Graphics/SVG/1.1/DTD/svg11.dtd" [
	<!ENTITY ns_flows "http://ns.adobe.com/Flows/1.0/">
	<!ENTITY ns_extend "http://ns.adobe.com/Extensibility/1.0/">
	<!ENTITY ns_ai "http://ns.adobe.com/AdobeIllustrator/10.0/">
	<!ENTITY ns_graphs "http://ns.adobe.com/Graphs/1.0/">
	<!ENTITY st0 "fill:none;">
	<!ENTITY st1 "fill:none;stroke:#231815;stroke-width:0.3;stroke-linecap:square;">
	<!ENTITY st2 "fill:url(#USGS_8_下水処理);">
]>
<svg version="1.1" id="レイヤー_3" xmlns:x="&ns_extend;" xmlns:i="&ns_ai;" xmlns:graph="&ns_graphs;"
	 xmlns="http://www.w3.org/2000/svg" xmlns:xlink="http://www.w3.org/1999/xlink" xmlns:a="http://ns.adobe.com/AdobeSVGViewerExtensions/3.0/"
	 x="0px" y="0px" width="729.401px" height="164.502px" viewBox="0 0 729.401 164.502"
	 style="enable-background:new 0 0 729.401 164.502;" xml:space="preserve">
<pattern  x="6.331" y="-208.198" width="72" height="74.8" patternUnits="userSpaceOnUse" id="USGS_8_下水処理" viewBox="21.65 -74.8 72 74.8" style="overflow:visible;">
	<g>
		<polygon style="&st0;" points="21.65,0 21.65,-74.8 93.65,-74.8 93.65,0 		"/>
		<line style="&st1;" x1="21.65" y1="-0.85" x2="93.65" y2="-0.85"/>
		<line style="&st1;" x1="21.65" y1="-2.55" x2="93.65" y2="-2.55"/>
		<line style="&st1;" x1="21.65" y1="-4.25" x2="93.65" y2="-4.25"/>
		<line style="&st1;" x1="21.65" y1="-5.95" x2="93.65" y2="-5.95"/>
		<line style="&st1;" x1="21.65" y1="-7.65" x2="93.65" y2="-7.65"/>
		<line style="&st1;" x1="21.65" y1="-9.35" x2="93.65" y2="-9.35"/>
		<line style="&st1;" x1="21.65" y1="-11.05" x2="93.65" y2="-11.05"/>
		<line style="&st1;" x1="21.65" y1="-12.75" x2="93.65" y2="-12.75"/>
		<line style="&st1;" x1="21.65" y1="-14.45" x2="93.65" y2="-14.45"/>
		<line style="&st1;" x1="21.65" y1="-16.15" x2="93.65" y2="-16.15"/>
		<line style="&st1;" x1="21.65" y1="-17.85" x2="93.65" y2="-17.85"/>
		<line style="&st1;" x1="21.65" y1="-19.55" x2="93.65" y2="-19.55"/>
		<line style="&st1;" x1="21.65" y1="-21.25" x2="93.65" y2="-21.25"/>
		<line style="&st1;" x1="21.65" y1="-22.949" x2="93.65" y2="-22.949"/>
		<line style="&st1;" x1="21.65" y1="-24.649" x2="93.65" y2="-24.649"/>
		<line style="&st1;" x1="21.65" y1="-26.349" x2="93.65" y2="-26.349"/>
		<line style="&st1;" x1="21.65" y1="-28.049" x2="93.65" y2="-28.049"/>
		<line style="&st1;" x1="21.65" y1="-29.749" x2="93.65" y2="-29.749"/>
		<line style="&st1;" x1="21.65" y1="-31.449" x2="93.65" y2="-31.449"/>
		<line style="&st1;" x1="21.65" y1="-33.149" x2="93.65" y2="-33.149"/>
		<line style="&st1;" x1="21.65" y1="-34.849" x2="93.65" y2="-34.849"/>
		<line style="&st1;" x1="21.65" y1="-36.549" x2="93.65" y2="-36.549"/>
		<line style="&st1;" x1="21.65" y1="-38.249" x2="93.65" y2="-38.249"/>
		<line style="&st1;" x1="21.65" y1="-39.949" x2="93.65" y2="-39.949"/>
		<line style="&st1;" x1="21.65" y1="-41.649" x2="93.65" y2="-41.649"/>
		<line style="&st1;" x1="21.65" y1="-43.349" x2="93.65" y2="-43.349"/>
		<line style="&st1;" x1="21.65" y1="-45.049" x2="93.65" y2="-45.049"/>
		<line style="&st1;" x1="21.65" y1="-46.749" x2="93.65" y2="-46.749"/>
		<line style="&st1;" x1="21.65" y1="-48.449" x2="93.65" y2="-48.449"/>
		<line style="&st1;" x1="21.65" y1="-50.149" x2="93.65" y2="-50.149"/>
		<line style="&st1;" x1="21.65" y1="-51.849" x2="93.65" y2="-51.849"/>
		<line style="&st1;" x1="21.65" y1="-53.549" x2="93.65" y2="-53.549"/>
		<line style="&st1;" x1="21.65" y1="-55.249" x2="93.65" y2="-55.249"/>
		<line style="&st1;" x1="21.65" y1="-56.949" x2="93.65" y2="-56.949"/>
		<line style="&st1;" x1="21.65" y1="-58.649" x2="93.65" y2="-58.649"/>
		<line style="&st1;" x1="21.65" y1="-60.349" x2="93.65" y2="-60.349"/>
		<line style="&st1;" x1="21.65" y1="-62.049" x2="93.65" y2="-62.049"/>
		<line style="&st1;" x1="21.65" y1="-63.749" x2="93.65" y2="-63.749"/>
		<line style="&st1;" x1="21.65" y1="-65.449" x2="93.65" y2="-65.449"/>
		<line style="&st1;" x1="21.65" y1="-67.149" x2="93.65" y2="-67.149"/>
		<line style="&st1;" x1="21.65" y1="-68.849" x2="93.65" y2="-68.849"/>
		<line style="&st1;" x1="21.65" y1="-70.549" x2="93.65" y2="-70.549"/>
		<line style="&st1;" x1="21.65" y1="-72.249" x2="93.65" y2="-72.249"/>
		<line style="&st1;" x1="21.65" y1="-73.949" x2="93.65" y2="-73.949"/>
		<line style="&st1;" x1="0.15" y1="-67.149" x2="11.4" y2="-67.149"/>
	</g>
</pattern>
<g>
	<path style="&st2;" d="M48.329,21.389c7.131,0,13.769,1.139,19.918,3.41c6.146,2.273,11.47,5.684,15.965,10.229
		c4.495,4.549,8.007,10.23,10.54,17.05c2.531,6.82,3.798,14.83,3.798,24.025c0,8.061-1.034,15.5-3.101,22.32
		c-2.068,6.819-5.192,12.71-9.377,17.67c-4.186,4.96-9.404,8.861-15.655,11.702c-6.253,2.844-13.616,4.263-22.088,4.263H0.589
		V21.389H48.329z M46.624,111.599c3.512,0,6.921-0.566,10.229-1.705c3.306-1.136,6.251-3.022,8.835-5.657
		c2.582-2.635,4.65-6.069,6.2-10.308c1.55-4.236,2.325-9.401,2.325-15.5c0-5.58-0.543-10.617-1.628-15.112
		s-2.867-8.344-5.348-11.548c-2.479-3.202-5.762-5.657-9.842-7.362c-4.084-1.705-9.121-2.558-15.113-2.558h-17.36v69.75H46.624z"/>
	<path style="&st2;" d="M132.803,112.839c3.307,3.204,8.061,4.805,14.261,4.805c4.441,0,8.266-1.109,11.47-3.332
		c3.201-2.222,5.166-4.573,5.89-7.053h19.375c-3.1,9.609-7.854,16.483-14.26,20.615c-6.408,4.134-14.158,6.199-23.25,6.199
		c-6.304,0-11.988-1.007-17.05-3.022c-5.064-2.015-9.354-4.882-12.865-8.603c-3.514-3.72-6.227-8.161-8.138-13.33
		c-1.913-5.165-2.867-10.85-2.867-17.05c0-5.991,0.98-11.571,2.945-16.74c1.961-5.165,4.751-9.634,8.369-13.407
		c3.616-3.771,7.93-6.742,12.943-8.912c5.011-2.17,10.563-3.255,16.662-3.255c6.82,0,12.761,1.317,17.825,3.952
		c5.062,2.635,9.223,6.176,12.478,10.617c3.255,4.444,5.604,9.509,7.052,15.19c1.446,5.684,1.962,11.625,1.551,17.825h-57.815
		C127.689,104.469,129.496,109.637,132.803,112.839z M157.681,70.679c-2.635-2.892-6.641-4.34-12.013-4.34
		c-3.514,0-6.433,0.596-8.758,1.782c-2.324,1.189-4.185,2.662-5.58,4.418c-1.395,1.758-2.378,3.618-2.944,5.579
		c-0.569,1.965-0.906,3.721-1.008,5.271h35.805C162.149,77.809,160.316,73.572,157.681,70.679z"/>
	<path style="&st2;" d="M212.86,112.141c0.98,1.705,2.247,3.101,3.797,4.186c1.55,1.085,3.332,1.887,5.347,2.402
		c2.016,0.519,4.107,0.775,6.278,0.775c1.55,0,3.177-0.18,4.882-0.543c1.705-0.36,3.255-0.93,4.65-1.705
		c1.395-0.774,2.558-1.807,3.487-3.1c0.93-1.291,1.396-2.919,1.396-4.883c0-3.306-2.197-5.786-6.588-7.439
		c-4.394-1.652-10.516-3.307-18.367-4.96c-3.204-0.722-6.331-1.574-9.377-2.558c-3.049-0.981-5.762-2.272-8.138-3.875
		c-2.378-1.602-4.289-3.616-5.734-6.045c-1.448-2.427-2.17-5.398-2.17-8.913c0-5.166,1.007-9.401,3.022-12.71
		c2.015-3.306,4.674-5.914,7.982-7.827c3.306-1.911,7.025-3.255,11.159-4.03c4.131-0.775,8.37-1.162,12.71-1.162
		c4.34,0,8.549,0.414,12.632,1.239c4.081,0.829,7.724,2.224,10.928,4.186c3.202,1.964,5.863,4.572,7.982,7.827
		c2.117,3.255,3.384,7.362,3.798,12.322h-20.926c-0.31-4.235-1.913-7.103-4.805-8.602c-2.894-1.497-6.304-2.248-10.229-2.248
		c-1.24,0-2.585,0.077-4.03,0.232c-1.448,0.155-2.766,0.492-3.952,1.008c-1.189,0.519-2.197,1.267-3.022,2.247
		c-0.829,0.983-1.24,2.301-1.24,3.953c0,1.964,0.721,3.564,2.169,4.805c1.445,1.24,3.332,2.247,5.657,3.022s4.984,1.473,7.982,2.093
		c2.996,0.62,6.045,1.293,9.146,2.015c3.201,0.725,6.328,1.604,9.377,2.635c3.047,1.034,5.76,2.402,8.138,4.107
		c2.376,1.705,4.287,3.824,5.735,6.355c1.445,2.533,2.17,5.657,2.17,9.377c0,5.271-1.061,9.688-3.178,13.253
		c-2.119,3.565-4.883,6.433-8.293,8.603c-3.409,2.17-7.312,3.695-11.702,4.572c-4.394,0.877-8.861,1.317-13.407,1.317
		c-4.65,0-9.198-0.465-13.64-1.395c-4.443-0.93-8.396-2.48-11.857-4.65c-3.463-2.17-6.304-5.037-8.524-8.603
		c-2.224-3.564-3.437-8.033-3.643-13.407h20.925C211.387,108.397,211.876,110.437,212.86,112.141z"/>
	<path style="&st2;" d="M274.314,39.524V21.389h22.01v18.135H274.314z M296.324,51.924v80.135h-22.01V51.924H296.324z"/>
	<path style="&st2;" d="M385.526,137.948c-0.88,4.132-2.767,7.982-5.658,11.548c-2.894,3.565-7.079,6.588-12.555,9.067
		c-5.479,2.48-12.814,3.72-22.01,3.72c-3.929,0-7.932-0.491-12.013-1.472c-4.083-0.983-7.804-2.507-11.16-4.573
		c-3.359-2.068-6.149-4.728-8.37-7.982c-2.223-3.255-3.487-7.156-3.797-11.702h21.854c1.032,4.132,3.047,6.999,6.045,8.603
		c2.996,1.601,6.457,2.402,10.385,2.402c6.2,0,10.72-1.86,13.562-5.58c2.841-3.72,4.21-8.423,4.108-14.104v-10.54h-0.311
		c-2.378,4.238-5.762,7.362-10.152,9.377c-4.394,2.016-9.017,3.022-13.873,3.022c-5.994,0-11.159-1.059-15.5-3.178
		c-4.34-2.116-7.904-5.011-10.694-8.68c-2.79-3.667-4.832-7.956-6.123-12.865c-1.293-4.906-1.938-10.099-1.938-15.577
		c0-5.166,0.749-10.152,2.248-14.957c1.496-4.806,3.693-9.041,6.587-12.711c2.893-3.666,6.483-6.587,10.772-8.757
		c4.287-2.17,9.223-3.255,14.803-3.255c5.271,0,9.894,0.983,13.873,2.944c3.977,1.965,7.309,5.271,9.997,9.92h0.311V51.924h20.925
		v75.02C386.844,130.148,386.402,133.815,385.526,137.948z M355.379,111.289c2.375-1.24,4.34-2.893,5.89-4.961
		c1.55-2.065,2.713-4.417,3.487-7.052c0.775-2.636,1.163-5.398,1.163-8.293c0-3.306-0.311-6.433-0.931-9.377
		c-0.62-2.945-1.654-5.554-3.1-7.828c-1.448-2.271-3.359-4.081-5.735-5.425c-2.378-1.342-5.374-2.015-8.99-2.015
		c-3.1,0-5.762,0.62-7.982,1.859c-2.223,1.24-4.083,2.921-5.58,5.038c-1.499,2.119-2.584,4.548-3.255,7.285
		c-0.673,2.738-1.007,5.606-1.007,8.603c0,2.894,0.283,5.761,0.853,8.603c0.566,2.843,1.55,5.4,2.944,7.672
		c1.396,2.274,3.229,4.135,5.503,5.58c2.271,1.448,5.115,2.17,8.524,2.17C350.264,113.149,353,112.529,355.379,111.289z"/>
	<path style="&st2;" d="M421.562,51.924v11.16h0.465c2.79-4.65,6.406-8.034,10.851-10.153c4.441-2.116,8.989-3.177,13.64-3.177
		c5.89,0,10.719,0.802,14.492,2.402c3.771,1.604,6.743,3.824,8.913,6.665c2.17,2.843,3.693,6.304,4.572,10.385
		c0.877,4.083,1.317,8.603,1.317,13.562v49.29h-22.01v-45.26c0-6.612-1.034-11.548-3.101-14.803
		c-2.067-3.255-5.734-4.883-11.005-4.883c-5.994,0-10.334,1.783-13.02,5.348c-2.688,3.565-4.03,9.431-4.03,17.593v42.005h-22.01
		V51.924H421.562z"/>
	<path style="&st2;" d="M489.296,39.524V21.389h22.01v18.135H489.296z M511.306,51.924v80.135h-22.01V51.924H511.306z"/>
	<path style="&st2;" d="M543.312,112.141c0.98,1.705,2.247,3.101,3.798,4.186c1.55,1.085,3.332,1.887,5.347,2.402
		c2.016,0.519,4.107,0.775,6.278,0.775c1.55,0,3.177-0.18,4.882-0.543c1.705-0.36,3.255-0.93,4.65-1.705
		c1.395-0.774,2.558-1.807,3.487-3.1c0.93-1.291,1.396-2.919,1.396-4.883c0-3.306-2.197-5.786-6.588-7.439
		c-4.394-1.652-10.516-3.307-18.367-4.96c-3.204-0.722-6.331-1.574-9.378-2.558c-3.049-0.981-5.762-2.272-8.138-3.875
		c-2.378-1.602-4.289-3.616-5.734-6.045c-1.448-2.427-2.17-5.398-2.17-8.913c0-5.166,1.007-9.401,3.022-12.71
		c2.015-3.306,4.674-5.914,7.982-7.827c3.306-1.911,7.025-3.255,11.159-4.03c4.132-0.775,8.37-1.162,12.711-1.162
		c4.34,0,8.549,0.414,12.632,1.239c4.081,0.829,7.724,2.224,10.928,4.186c3.202,1.964,5.863,4.572,7.982,7.827
		c2.117,3.255,3.384,7.362,3.798,12.322h-20.926c-0.31-4.235-1.913-7.103-4.805-8.602c-2.894-1.497-6.304-2.248-10.229-2.248
		c-1.24,0-2.585,0.077-4.03,0.232c-1.448,0.155-2.766,0.492-3.952,1.008c-1.189,0.519-2.197,1.267-3.022,2.247
		c-0.829,0.983-1.24,2.301-1.24,3.953c0,1.964,0.722,3.564,2.17,4.805c1.445,1.24,3.332,2.247,5.657,3.022s4.984,1.473,7.982,2.093
		c2.996,0.62,6.045,1.293,9.146,2.015c3.201,0.725,6.328,1.604,9.377,2.635c3.047,1.034,5.76,2.402,8.138,4.107
		c2.376,1.705,4.287,3.824,5.735,6.355c1.445,2.533,2.17,5.657,2.17,9.377c0,5.271-1.061,9.688-3.178,13.253
		c-2.119,3.565-4.883,6.433-8.293,8.603c-3.409,2.17-7.312,3.695-11.702,4.572c-4.394,0.877-8.861,1.317-13.407,1.317
		c-4.65,0-9.198-0.465-13.641-1.395c-4.443-0.93-8.396-2.48-11.857-4.65c-3.463-2.17-6.304-5.037-8.524-8.603
		c-2.224-3.564-3.437-8.033-3.643-13.407h20.925C541.84,108.397,542.329,110.437,543.312,112.141z"/>
	<path style="&st2;" d="M648.168,51.924v14.725h-16.12v39.68c0,3.721,0.62,6.2,1.86,7.44s3.72,1.86,7.44,1.86
		c1.239,0,2.427-0.051,3.564-0.155c1.136-0.102,2.221-0.257,3.255-0.465v17.05c-1.859,0.31-3.928,0.516-6.199,0.62
		c-2.274,0.102-4.495,0.155-6.665,0.155c-3.41,0-6.642-0.232-9.688-0.698c-3.05-0.465-5.735-1.368-8.061-2.712
		c-2.325-1.342-4.16-3.255-5.502-5.735c-1.345-2.479-2.016-5.735-2.016-9.765V66.649h-13.33V51.924h13.33V27.899h22.01v24.025
		H648.168z"/>
	<path style="&st2;" d="M657.777,63.703c2.271-3.409,5.165-6.146,8.68-8.215c3.512-2.065,7.464-3.538,11.857-4.417
		c4.391-0.877,8.809-1.317,13.253-1.317c4.029,0,8.11,0.285,12.244,0.853c4.132,0.568,7.905,1.681,11.315,3.332
		c3.41,1.654,6.2,3.952,8.37,6.897s3.255,6.847,3.255,11.703v41.694c0,3.618,0.206,7.079,0.62,10.385
		c0.411,3.309,1.136,5.789,2.17,7.44h-22.32c-0.414-1.24-0.751-2.504-1.007-3.798c-0.26-1.29-0.441-2.608-0.543-3.952
		c-3.514,3.618-7.648,6.149-12.4,7.595c-4.754,1.446-9.609,2.17-14.569,2.17c-3.824,0-7.39-0.465-10.695-1.395
		c-3.309-0.93-6.2-2.376-8.68-4.34c-2.48-1.962-4.418-4.442-5.812-7.44c-1.396-2.996-2.093-6.561-2.093-10.695
		c0-4.545,0.799-8.292,2.402-11.237c1.601-2.944,3.667-5.294,6.2-7.052c2.531-1.756,5.425-3.074,8.68-3.953
		c3.255-0.877,6.534-1.574,9.843-2.093c3.306-0.516,6.561-0.93,9.765-1.239c3.202-0.311,6.045-0.775,8.525-1.396
		s4.441-1.523,5.89-2.712c1.446-1.188,2.117-2.919,2.016-5.193c0-2.375-0.388-4.262-1.163-5.657c-0.774-1.395-1.809-2.479-3.1-3.255
		c-1.293-0.775-2.79-1.291-4.495-1.55c-1.705-0.257-3.541-0.388-5.503-0.388c-4.34,0-7.75,0.93-10.229,2.79
		c-2.48,1.86-3.929,4.96-4.34,9.3h-22.01C654.212,71.403,655.503,67.114,657.777,63.703z M701.255,94.781
		c-1.396,0.465-2.895,0.853-4.495,1.162c-1.604,0.311-3.282,0.569-5.038,0.775c-1.758,0.208-3.514,0.465-5.27,0.774
		c-1.654,0.311-3.282,0.725-4.883,1.24c-1.604,0.519-2.998,1.216-4.185,2.093c-1.189,0.879-2.146,1.99-2.868,3.332
		c-0.724,1.345-1.085,3.05-1.085,5.115c0,1.964,0.361,3.618,1.085,4.96c0.722,1.345,1.705,2.402,2.945,3.178s2.686,1.317,4.34,1.628
		c1.652,0.31,3.356,0.465,5.115,0.465c4.34,0,7.696-0.722,10.075-2.17c2.376-1.446,4.132-3.178,5.27-5.193
		c1.136-2.015,1.834-4.054,2.093-6.122c0.257-2.065,0.388-3.72,0.388-4.96v-8.215C703.811,93.672,702.649,94.317,701.255,94.781z"/>
</g>
</svg>
